<svg id="svg" version="1.1" xmlns="http://www.w3.org/2000/svg" xmlns:xlink="http://www.w3.org/1999/xlink" width="400" height="400" viewBox="0, 0, 400,400"><g id="svgg"><path id="path0" d="M0.000 200.000 L 0.000 400.000 200.000 400.000 L 400.000 400.000 400.000 200.000 L 400.000 0.000 200.000 0.000 L 0.000 0.000 0.000 200.000 M230.370 197.732 C 230.370 210.723,230.344 210.538,232.222 210.798 C 233.033 210.910,233.175 211.156,233.367 212.778 C 233.640 215.088,233.429 215.247,230.290 215.097 C 225.112 214.848,224.820 213.928,224.817 197.870 L 224.815 185.556 227.593 185.556 L 230.370 185.556 230.370 197.732 M96.949 201.019 L 97.046 214.815 94.264 214.815 L 91.481 214.815 91.481 200.910 L 91.481 187.005 94.167 187.113 L 96.852 187.222 96.949 201.019 M276.615 187.611 C 277.679 187.927,279.080 188.660,279.729 189.240 L 280.909 190.294 279.621 192.183 C 278.140 194.356,278.064 194.381,276.631 193.175 C 273.274 190.350,266.548 191.640,267.193 194.986 C 267.505 196.604,268.497 197.249,271.753 197.948 C 279.669 199.650,281.862 201.556,281.844 206.723 C 281.814 215.218,269.322 218.590,262.500 211.944 C 260.767 210.255,260.771 210.120,262.641 207.996 L 264.171 206.258 265.375 207.572 C 268.975 211.502,276.296 211.260,276.296 207.210 C 276.296 205.037,275.139 204.183,270.741 203.113 C 264.121 201.502,261.852 199.429,261.852 194.992 C 261.852 188.625,268.625 185.239,276.615 187.611 M304.944 188.286 C 306.564 189.082,307.382 189.778,308.187 191.047 L 309.263 192.744 307.317 193.956 C 304.941 195.436,304.780 195.445,304.038 194.141 C 302.065 190.670,294.433 191.156,292.513 194.875 C 290.882 198.035,290.878 204.190,292.506 207.326 C 295.212 212.540,303.704 211.179,303.704 205.531 L 303.704 204.074 300.556 204.074 L 297.407 204.074 297.407 201.852 L 297.407 199.630 303.333 199.630 L 309.259 199.630 309.259 207.222 L 309.259 214.815 306.686 214.815 L 304.113 214.815 304.001 212.870 L 303.889 210.926 303.100 212.260 C 300.476 216.700,292.003 216.083,288.263 211.179 C 283.856 205.401,284.971 193.447,290.295 189.386 C 293.788 186.721,300.701 186.202,304.944 188.286 M253.148 188.110 C 256.800 189.800,258.309 193.658,256.797 197.438 C 256.175 198.990,253.775 201.111,252.640 201.111 C 252.244 201.111,252.427 201.449,253.212 202.166 C 254.713 203.537,258.519 212.383,258.519 214.501 C 258.519 214.693,257.267 214.798,255.693 214.738 L 252.868 214.630 251.424 210.102 C 249.514 204.111,248.997 203.519,245.680 203.519 L 243.148 203.519 243.046 209.167 L 242.944 214.815 240.176 214.815 L 237.407 214.815 237.407 201.111 L 237.407 187.407 244.537 187.416 C 250.685 187.423,251.871 187.518,253.148 188.110 M133.704 191.667 L 133.704 194.074 136.667 194.074 L 139.630 194.074 139.630 196.111 L 139.630 198.148 136.667 198.148 L 133.704 198.148 133.704 203.436 C 133.704 210.360,134.383 211.296,138.450 209.973 C 138.858 209.840,140.369 212.818,140.370 213.756 C 140.371 214.303,137.239 215.185,135.295 215.185 C 129.788 215.185,128.416 213.086,128.209 204.352 L 128.063 198.148 126.624 198.148 L 125.185 198.148 125.185 196.111 L 125.185 194.074 126.667 194.074 L 128.148 194.074 128.148 192.044 C 128.148 189.870,127.982 190.046,130.556 189.502 C 130.963 189.416,131.838 189.326,132.500 189.302 L 133.704 189.259 133.704 191.667 M181.317 191.525 C 183.486 192.072,183.559 193.195,181.556 195.198 L 180.149 196.605 180.888 197.620 C 184.092 202.017,180.006 207.778,173.683 207.778 C 170.937 207.778,169.879 208.396,170.616 209.568 C 170.921 210.053,171.907 210.248,175.224 210.480 C 183.170 211.035,186.232 214.896,182.944 220.215 C 180.242 224.588,167.428 224.931,164.424 220.712 C 162.816 218.454,163.671 215.255,166.161 214.214 L 167.450 213.676 166.503 212.550 C 164.908 210.655,165.450 208.426,167.802 207.210 L 168.891 206.646 167.616 205.527 C 161.362 200.035,168.620 191.551,177.390 194.103 C 177.751 194.207,178.115 193.738,178.490 192.685 C 179.117 190.926,179.049 190.954,181.317 191.525 M242.963 195.370 L 242.963 198.889 246.498 198.889 C 250.859 198.889,251.852 198.236,251.852 195.370 C 251.852 192.504,250.859 191.852,246.498 191.852 L 242.963 191.852 242.963 195.370 M119.493 194.718 C 121.784 196.349,122.024 197.419,122.155 206.574 L 122.273 214.815 119.470 214.815 L 116.667 214.815 116.667 207.391 C 116.667 199.032,116.384 198.148,113.709 198.148 C 109.612 198.148,108.889 199.674,108.889 208.321 L 108.889 214.815 106.111 214.815 L 103.333 214.815 103.333 204.444 L 103.333 194.074 105.926 194.074 L 108.519 194.074 108.519 195.638 L 108.519 197.202 109.622 195.994 C 111.867 193.536,116.917 192.883,119.493 194.718 M156.586 194.279 C 159.905 195.665,161.461 198.342,161.473 202.685 L 161.481 205.556 154.589 205.556 L 147.697 205.556 147.950 206.574 C 148.979 210.717,153.502 212.148,156.471 209.269 C 157.873 207.910,157.732 207.915,159.800 209.164 C 161.844 210.399,161.842 210.366,159.971 212.396 C 155.108 217.671,144.890 215.394,142.914 208.596 C 140.127 199.006,148.048 190.712,156.586 194.279 M199.756 194.052 C 200.616 194.379,200.651 194.497,200.333 195.996 C 199.600 199.449,199.806 199.188,197.973 198.982 C 193.738 198.504,192.871 200.076,192.660 208.611 L 192.507 214.815 189.957 214.815 L 187.407 214.815 187.407 204.444 L 187.407 194.074 190.000 194.074 L 192.593 194.074 192.597 195.648 L 192.601 197.222 193.583 195.975 C 195.140 193.999,197.601 193.232,199.756 194.052 M216.199 194.681 C 218.634 196.484,218.889 197.330,218.889 203.598 C 218.889 209.689,219.130 210.741,220.527 210.741 C 221.534 210.741,222.302 213.772,221.499 214.576 C 220.437 215.637,216.668 215.064,215.366 213.642 L 214.133 212.297 213.270 213.221 C 209.029 217.762,201.589 214.743,201.939 208.623 C 202.135 205.196,204.001 203.537,208.704 202.611 C 213.280 201.710,214.563 200.711,213.442 198.924 C 212.508 197.436,207.138 198.278,205.578 200.158 C 204.854 201.031,204.589 200.899,203.295 199.018 L 202.109 197.295 203.370 196.246 C 206.474 193.660,213.642 192.786,216.199 194.681 M171.717 198.175 C 170.297 199.292,170.297 202.190,171.717 203.306 C 173.911 205.033,176.667 203.605,176.667 200.741 C 176.667 197.877,173.911 196.449,171.717 198.175 M150.282 198.337 C 149.244 198.921,148.148 200.622,148.148 201.648 C 148.148 202.132,148.790 202.222,152.222 202.222 L 156.296 202.222 156.296 201.132 C 156.296 198.583,152.761 196.940,150.282 198.337 M212.593 205.155 C 212.287 205.329,211.302 205.593,210.404 205.742 C 206.152 206.443,205.888 211.111,210.099 211.111 C 212.378 211.111,213.704 209.555,213.704 206.880 C 213.704 204.781,213.581 204.590,212.593 205.155 M169.333 215.630 C 167.159 217.804,170.084 219.900,174.814 219.558 C 178.211 219.312,180.129 216.520,177.568 215.546 C 176.188 215.021,169.878 215.085,169.333 215.630 " stroke="none" fill="#fbfbfb" fill-rule="evenodd"></path><path id="path1" d="M225.185 198.530 C 225.185 214.401,225.369 214.957,230.616 214.987 C 233.411 215.003,233.472 214.946,233.151 212.616 C 232.910 210.858,232.827 210.741,231.830 210.741 C 230.075 210.741,230.000 210.202,230.000 197.617 L 230.000 185.926 227.593 185.926 L 225.185 185.926 225.185 198.530 M91.481 201.111 L 91.481 214.815 94.074 214.815 L 96.667 214.815 96.667 201.111 L 96.667 187.407 94.074 187.407 L 91.481 187.407 91.481 201.111 M130.463 189.702 L 128.519 190.056 128.519 192.065 L 128.519 194.074 126.852 194.074 L 125.185 194.074 125.185 196.111 L 125.185 198.148 126.852 198.148 L 128.519 198.148 128.519 204.181 C 128.519 213.491,131.186 216.629,137.593 214.855 C 140.135 214.151,140.228 214.016,139.582 211.970 C 138.986 210.080,139.048 210.107,136.431 210.604 C 134.082 211.049,133.704 210.093,133.704 203.704 L 133.704 198.148 136.481 198.148 L 139.259 198.148 139.259 196.111 L 139.259 194.074 136.481 194.074 L 133.704 194.074 133.704 191.667 C 133.704 188.966,133.888 189.077,130.463 189.702 M179.006 191.817 C 178.266 194.161,178.026 194.499,177.258 194.274 C 168.668 191.762,161.773 199.645,167.605 205.310 C 169.164 206.824,169.165 206.833,167.764 207.413 C 165.680 208.276,165.209 211.034,166.864 212.689 L 167.801 213.626 166.162 214.420 C 162.259 216.309,163.212 221.314,167.745 222.735 C 175.924 225.298,183.706 222.357,183.702 216.704 C 183.699 212.386,181.907 211.091,175.469 210.756 C 170.898 210.518,170.230 210.264,170.432 208.839 C 170.547 208.024,170.766 207.945,173.593 207.711 C 180.412 207.146,184.053 201.887,180.634 197.541 L 179.869 196.569 181.032 195.599 C 182.035 194.762,182.963 193.163,182.963 192.271 C 182.963 191.630,179.201 191.198,179.006 191.817 M112.407 194.256 C 111.593 194.542,110.384 195.396,109.722 196.154 L 108.519 197.531 108.519 195.802 L 108.519 194.074 106.111 194.074 L 103.704 194.074 103.704 204.444 L 103.704 214.815 106.111 214.815 L 108.519 214.815 108.527 208.981 C 108.541 200.180,109.413 198.148,113.178 198.148 C 116.724 198.148,117.037 198.949,117.037 208.018 L 117.037 214.815 119.444 214.815 L 121.852 214.815 121.852 206.655 C 121.852 197.922,121.673 196.854,119.955 195.329 C 118.145 193.722,115.144 193.296,112.407 194.256 M149.949 193.942 C 141.413 195.455,139.718 210.331,147.667 213.971 C 151.926 215.921,156.877 215.345,159.644 212.578 C 161.502 210.720,161.483 210.421,159.420 209.118 L 157.731 208.050 157.176 208.842 C 154.649 212.451,147.778 210.603,147.778 206.315 C 147.778 205.577,147.969 205.556,154.630 205.556 L 161.481 205.556 161.479 203.241 C 161.473 196.310,156.990 192.695,149.949 193.942 M207.759 194.186 C 205.973 194.691,203.715 195.945,202.965 196.849 C 202.601 197.288,202.700 197.711,203.480 199.041 L 204.446 200.690 206.314 199.433 C 209.336 197.399,212.930 197.228,213.773 199.079 C 214.562 200.809,213.509 201.620,209.071 202.702 C 203.580 204.040,201.863 205.564,201.854 209.111 C 201.839 214.788,209.665 217.354,213.375 212.890 L 214.343 211.725 214.857 212.796 C 215.675 214.502,218.747 215.415,220.896 214.590 C 222.189 214.094,221.671 210.806,220.278 210.672 L 219.074 210.556 218.889 204.259 C 218.678 197.092,218.331 196.018,215.804 194.707 C 214.038 193.791,210.066 193.534,207.759 194.186 M187.407 204.444 L 187.407 214.815 190.000 214.815 L 192.593 214.815 192.613 208.796 C 192.643 200.249,193.731 198.146,197.842 198.681 L 199.573 198.907 199.997 196.866 C 200.530 194.300,200.377 194.074,198.108 194.074 C 195.845 194.074,194.411 194.773,193.385 196.375 L 192.605 197.593 192.599 195.833 L 192.593 194.074 190.000 194.074 L 187.407 194.074 187.407 204.444 M175.917 198.139 C 178.147 200.369,176.791 204.074,173.745 204.074 C 171.503 204.074,170.556 203.084,170.556 200.741 C 170.556 197.708,173.874 196.097,175.917 198.139 M154.985 198.358 C 155.817 198.903,156.667 200.602,156.667 201.722 C 156.667 202.114,155.708 202.222,152.222 202.222 C 149.778 202.222,147.778 202.134,147.778 202.025 C 147.778 198.974,152.364 196.640,154.985 198.358 M214.074 206.123 C 214.074 209.595,211.905 211.944,209.299 211.294 C 205.590 210.369,206.369 206.428,210.430 205.579 C 211.517 205.352,212.657 205.006,212.963 204.811 C 213.914 204.203,214.074 204.392,214.074 206.123 M177.845 215.602 C 179.448 216.433,178.740 218.980,176.755 219.527 C 172.384 220.729,168.019 219.077,168.674 216.468 C 169.061 214.924,175.386 214.327,177.845 215.602 " stroke="none" fill="#084fad" fill-rule="evenodd"></path><path id="path2" d="M267.711 187.530 C 263.917 188.604,262.069 190.980,262.050 194.815 C 262.026 199.339,264.044 201.231,270.674 202.904 C 275.549 204.133,276.397 204.742,276.397 207.013 C 276.397 211.483,269.784 211.987,265.461 207.845 L 264.071 206.513 262.958 207.794 C 260.899 210.163,260.888 210.272,262.543 211.847 C 268.224 217.251,279.765 215.634,281.500 209.190 C 282.937 203.853,280.218 199.986,274.116 198.687 C 268.354 197.461,267.037 196.706,267.037 194.630 C 267.037 191.603,272.758 190.392,276.223 192.685 C 278.203 193.995,278.165 194.003,279.575 192.003 C 280.991 189.993,280.880 189.744,277.918 188.295 C 275.487 187.106,270.525 186.734,267.711 187.530 M293.853 187.771 C 286.783 190.087,283.653 199.575,287.005 208.533 C 289.467 215.113,299.535 217.536,302.778 212.329 C 303.879 210.561,304.444 210.776,304.444 212.963 L 304.444 214.815 306.852 214.815 L 309.259 214.815 309.259 207.222 L 309.259 199.630 303.333 199.630 L 297.407 199.630 297.407 201.852 L 297.407 204.074 300.741 204.074 L 304.074 204.074 304.074 205.407 C 304.074 212.323,293.693 212.634,291.657 205.779 C 290.539 202.014,291.162 196.062,292.888 194.011 C 295.601 190.786,301.163 190.619,303.785 193.682 L 305.014 195.118 306.951 193.951 C 309.243 192.571,309.270 192.430,307.609 190.490 C 304.969 187.406,298.729 186.173,293.853 187.771 M237.778 201.077 L 237.778 214.815 240.370 214.815 L 242.963 214.815 242.963 209.074 L 242.963 203.333 245.572 203.333 C 249.093 203.333,249.479 203.762,251.517 209.937 L 253.127 214.815 255.797 214.815 L 258.467 214.815 256.882 210.090 C 255.002 204.485,254.365 203.171,253.140 202.368 C 251.956 201.593,251.981 201.184,253.241 200.707 C 258.167 198.841,258.451 191.184,253.693 188.520 C 252.114 187.636,251.707 187.587,244.907 187.466 L 237.778 187.339 237.778 201.077 M250.157 192.001 C 252.419 192.946,252.817 196.371,250.878 198.194 C 250.055 198.967,249.518 199.090,246.452 199.202 L 242.963 199.331 242.963 195.406 L 242.963 191.481 245.938 191.481 C 247.653 191.481,249.439 191.702,250.157 192.001 " stroke="none" fill="#fb944c" fill-rule="evenodd"></path><path id="path3" d="M237.575 201.111 C 237.575 208.750,237.624 211.875,237.685 208.056 C 237.745 204.236,237.745 197.986,237.685 194.167 C 237.624 190.347,237.575 193.472,237.575 201.111 M244.548 191.754 C 245.522 191.831,247.022 191.830,247.882 191.752 C 248.741 191.674,247.944 191.612,246.111 191.613 C 244.278 191.614,243.574 191.678,244.548 191.754 M297.500 191.747 C 298.060 191.832,298.977 191.832,299.537 191.747 C 300.097 191.662,299.639 191.592,298.519 191.592 C 297.398 191.592,296.940 191.662,297.500 191.747 M257.143 194.630 C 257.146 195.648,257.218 196.021,257.303 195.458 C 257.388 194.895,257.386 194.062,257.298 193.606 C 257.210 193.150,257.140 193.611,257.143 194.630 M285.641 198.889 C 285.641 199.602,285.718 199.894,285.811 199.537 C 285.904 199.181,285.904 198.597,285.811 198.241 C 285.718 197.884,285.641 198.176,285.641 198.889 M244.548 199.162 C 245.522 199.238,247.022 199.237,247.882 199.160 C 248.741 199.082,247.944 199.019,246.111 199.020 C 244.278 199.021,243.574 199.085,244.548 199.162 M285.649 203.148 C 285.653 203.963,285.729 204.253,285.818 203.792 C 285.906 203.331,285.903 202.665,285.810 202.310 C 285.717 201.956,285.645 202.333,285.649 203.148 M303.805 205.556 C 303.805 206.472,303.877 206.847,303.965 206.389 C 304.053 205.931,304.053 205.181,303.965 204.722 C 303.877 204.264,303.805 204.639,303.805 205.556 M271.204 210.626 C 271.560 210.719,272.144 210.719,272.500 210.626 C 272.856 210.533,272.565 210.456,271.852 210.456 C 271.139 210.456,270.847 210.533,271.204 210.626 M297.505 210.636 C 298.068 210.721,298.901 210.719,299.357 210.631 C 299.812 210.543,299.352 210.474,298.333 210.476 C 297.315 210.479,296.942 210.551,297.505 210.636 M304.185 212.963 C 304.185 214.083,304.254 214.542,304.339 213.981 C 304.424 213.421,304.424 212.505,304.339 211.944 C 304.254 211.384,304.185 211.843,304.185 212.963 " stroke="none" fill="#fcb281" fill-rule="evenodd"></path><path id="path4" d="M224.902 198.241 L 224.990 210.926 225.092 198.426 L 225.195 185.926 227.592 185.926 L 229.990 185.926 230.093 197.870 L 230.196 209.815 230.283 197.685 L 230.370 185.556 227.593 185.556 L 224.815 185.556 224.902 198.241 M93.977 187.303 L 96.658 187.440 96.762 201.035 L 96.865 214.630 96.859 200.926 L 96.852 187.222 94.074 187.194 L 91.296 187.166 93.977 187.303 M128.263 192.037 C 128.265 193.259,128.334 193.715,128.417 193.049 C 128.499 192.383,128.497 191.383,128.413 190.827 C 128.328 190.270,128.261 190.815,128.263 192.037 M197.319 193.966 C 197.780 194.054,198.447 194.051,198.801 193.958 C 199.155 193.865,198.778 193.793,197.963 193.797 C 197.148 193.801,196.858 193.877,197.319 193.966 M103.496 204.444 C 103.496 210.250,103.548 212.625,103.610 209.722 C 103.673 206.819,103.673 202.069,103.610 199.167 C 103.548 196.264,103.496 198.639,103.496 204.444 M139.374 196.111 C 139.376 197.333,139.445 197.789,139.528 197.123 C 139.610 196.457,139.608 195.457,139.524 194.901 C 139.439 194.344,139.372 194.889,139.374 196.111 M209.907 198.039 C 210.366 198.127,211.116 198.127,211.574 198.039 C 212.032 197.951,211.657 197.879,210.741 197.879 C 209.824 197.879,209.449 197.951,209.907 198.039 M128.296 203.519 C 128.297 206.574,128.354 207.775,128.424 206.187 C 128.493 204.599,128.493 202.099,128.423 200.631 C 128.353 199.164,128.296 200.463,128.296 203.519 M196.389 198.774 C 196.745 198.867,197.329 198.867,197.685 198.774 C 198.042 198.681,197.750 198.604,197.037 198.604 C 196.324 198.604,196.032 198.681,196.389 198.774 M122.009 207.037 C 122.009 211.417,122.063 213.208,122.128 211.019 C 122.194 208.829,122.194 205.245,122.128 203.056 C 122.063 200.866,122.009 202.657,122.009 207.037 M170.456 200.741 C 170.456 201.454,170.533 201.745,170.626 201.389 C 170.719 201.032,170.719 200.449,170.626 200.093 C 170.533 199.736,170.456 200.028,170.456 200.741 M176.753 200.741 C 176.753 201.454,176.829 201.745,176.922 201.389 C 177.015 201.032,177.015 200.449,176.922 200.093 C 176.829 199.736,176.753 200.028,176.753 200.741 M116.822 207.778 C 116.822 211.750,116.876 213.375,116.943 211.389 C 117.009 209.403,117.009 206.153,116.943 204.167 C 116.876 202.181,116.822 203.806,116.822 207.778 M108.670 208.704 C 108.670 212.167,108.725 213.633,108.794 211.963 C 108.862 210.292,108.863 207.459,108.795 205.666 C 108.727 203.874,108.670 205.241,108.670 208.704 M142.333 204.444 C 142.333 205.565,142.403 206.023,142.488 205.463 C 142.572 204.903,142.572 203.986,142.488 203.426 C 142.403 202.866,142.333 203.324,142.333 204.444 M213.614 205.833 C 213.841 208.215,213.986 208.409,214.031 206.389 C 214.055 205.319,213.941 204.444,213.778 204.444 C 213.615 204.444,213.542 205.069,213.614 205.833 M165.641 210.370 C 165.641 211.083,165.718 211.375,165.811 211.019 C 165.904 210.662,165.904 210.079,165.811 209.722 C 165.718 209.366,165.641 209.657,165.641 210.370 M172.870 210.638 C 173.532 210.720,174.616 210.720,175.278 210.638 C 175.940 210.556,175.398 210.489,174.074 210.489 C 172.750 210.489,172.208 210.556,172.870 210.638 M221.524 213.395 C 221.501 213.938,221.273 214.467,221.019 214.570 C 220.656 214.716,220.658 214.763,221.030 214.786 C 221.618 214.822,221.972 213.970,221.741 213.077 C 221.624 212.626,221.553 212.729,221.524 213.395 M171.019 215.076 C 171.477 215.164,172.227 215.164,172.685 215.076 C 173.144 214.988,172.769 214.916,171.852 214.916 C 170.935 214.916,170.560 214.988,171.019 215.076 M218.241 215.070 C 218.597 215.163,219.181 215.163,219.537 215.070 C 219.894 214.977,219.602 214.901,218.889 214.901 C 218.176 214.901,217.884 214.977,218.241 215.070 M183.797 216.481 C 183.801 217.296,183.877 217.586,183.966 217.125 C 184.054 216.665,184.051 215.998,183.958 215.644 C 183.865 215.290,183.793 215.667,183.797 216.481 M172.870 219.891 C 173.329 219.979,174.079 219.979,174.537 219.891 C 174.995 219.803,174.620 219.731,173.704 219.731 C 172.787 219.731,172.412 219.803,172.870 219.891 " stroke="none" fill="#95b4dd" fill-rule="evenodd"></path></g></svg>